<?xml version="1.0" encoding="UTF-8" standalone="no"?>
<!-- Generator: Adobe Illustrator 18.0.0, SVG Export Plug-In . SVG Version: 6.00 Build 0)  -->

<svg
   xmlns:dc="http://purl.org/dc/elements/1.1/"
   xmlns:cc="http://creativecommons.org/ns#"
   xmlns:rdf="http://www.w3.org/1999/02/22-rdf-syntax-ns#"
   xmlns:svg="http://www.w3.org/2000/svg"
   xmlns="http://www.w3.org/2000/svg"
   xmlns:xlink="http://www.w3.org/1999/xlink"
   xmlns:sodipodi="http://sodipodi.sourceforge.net/DTD/sodipodi-0.dtd"
   xmlns:inkscape="http://www.inkscape.org/namespaces/inkscape"
   version="1.1"
   id="Layer_1"
   x="0px"
   y="0px"
   viewBox="0 0 245.00001 85"
   enable-background="new 0 0 273.3 128.5"
   xml:space="preserve"
   inkscape:version="0.91 r"
   sodipodi:docname="header-refreshed.svg"
   width="245"
   height="85"><metadata
     id="metadata71"><rdf:RDF><cc:Work
         rdf:about=""><dc:format>image/svg+xml</dc:format><dc:type
           rdf:resource="http://purl.org/dc/dcmitype/StillImage" /><dc:title></dc:title></cc:Work></rdf:RDF></metadata><defs
     id="defs69"><linearGradient
       inkscape:collect="always"
       id="linearGradient4388"><stop
         style="stop-color:#e84b1d;stop-opacity:1"
         offset="0"
         id="stop4390" /><stop
         style="stop-color:#000000;stop-opacity:0;"
         offset="1"
         id="stop4392" /></linearGradient><linearGradient
       inkscape:collect="always"
       xlink:href="#linearGradient4388"
       id="linearGradient4366"
       x1="188.97087"
       y1="83.185028"
       x2="114.57681"
       y2="212.32191"
       gradientUnits="userSpaceOnUse" /><linearGradient
       inkscape:collect="always"
       xlink:href="#linearGradient4388"
       id="linearGradient4368"
       x1="197.99948"
       y1="88.386292"
       x2="113.58317"
       y2="234.92029"
       gradientUnits="userSpaceOnUse" /><linearGradient
       inkscape:collect="always"
       xlink:href="#linearGradient4388"
       id="linearGradient4386"
       x1="207.02811"
       y1="93.587563"
       x2="147.54259"
       y2="196.84544"
       gradientUnits="userSpaceOnUse" /></defs><sodipodi:namedview
     pagecolor="#ffffff"
     bordercolor="#666666"
     borderopacity="1"
     objecttolerance="10"
     gridtolerance="10"
     guidetolerance="10"
     inkscape:pageopacity="0"
     inkscape:pageshadow="2"
     inkscape:window-width="1920"
     inkscape:window-height="1028"
     id="namedview67"
     showgrid="false"
     inkscape:snap-intersection-paths="true"
     showguides="false"
     inkscape:guide-bbox="true"
     inkscape:snap-midpoints="true"
     inkscape:snap-object-midpoints="true"
     inkscape:snap-to-guides="false"
     inkscape:object-nodes="true"
     inkscape:snap-grids="false"
     inkscape:object-paths="true"
     inkscape:zoom="1.3867883"
     inkscape:cx="-269.05678"
     inkscape:cy="-61.031361"
     inkscape:window-x="0"
     inkscape:window-y="0"
     inkscape:window-maximized="1"
     inkscape:current-layer="g4325"><sodipodi:guide
       position="235.40001,111.6"
       orientation="0.86649902,-0.49917878"
       id="guide3447"
       inkscape:label=""
       inkscape:color="rgb(0,0,255)" /><sodipodi:guide
       position="196.91786,44.800795"
       orientation="0.4991789,0.86649895"
       id="guide4290"
       inkscape:label=""
       inkscape:color="rgb(0,0,255)" /><inkscape:grid
       type="xygrid"
       id="grid4292" /><sodipodi:guide
       position="111.4085,41.102163"
       orientation="0,1"
       id="guide4321" /><sodipodi:guide
       position="98.789414,100.23159"
       orientation="0,1"
       id="guide4323" /><sodipodi:guide
       position="131.59904,26.680351"
       orientation="0,1"
       id="guide4330" /></sodipodi:namedview><g
     id="g4325"
     transform="matrix(0.87902919,0,0,0.87902919,7.178697,-7.5440901)"><path
       inkscape:connector-curvature="0"
       id="path4315"
       d="M 188.97087,83.185026 104.55455,229.71903"
       style="fill:none;fill-rule:evenodd;stroke:url(#linearGradient4366);stroke-width:7;stroke-linecap:butt;stroke-linejoin:miter;stroke-miterlimit:4;stroke-dasharray:none;stroke-opacity:1" /><path
       inkscape:connector-curvature="0"
       id="path4317"
       d="M 197.99948,88.386293 113.58317,234.92029"
       style="fill:none;fill-rule:evenodd;stroke:url(#linearGradient4368);stroke-width:7;stroke-linecap:butt;stroke-linejoin:miter;stroke-miterlimit:4;stroke-dasharray:none;stroke-opacity:1" /><path
       inkscape:connector-curvature="0"
       id="path4319"
       d="m 207.0281,93.58756 -84.41632,146.534"
       style="fill:none;fill-rule:evenodd;stroke:url(#linearGradient4386);stroke-width:7;stroke-linecap:butt;stroke-linejoin:miter;stroke-miterlimit:4;stroke-dasharray:none;stroke-opacity:1" /></g><text
     font-size="76.0415"
     id="text3"
     style="font-size:76.04149628px;font-family:Raleway-Light"
     x="-6.613111"
     y="66.458565">Lob</text>
<g
     id="g4283"
     transform="matrix(0.87902919,0,0,0.87902919,8.129486,-3.4240029)"><path
       style="stroke-width:1;stroke-miterlimit:4;stroke-dasharray:none"
       d="M 211,18.6 C 210.2,10.9 205.3,5.9 197.6,5 c -4.8,-0.6 -10,1.5 -14.2,3.6 -4.1,2.2 -7.2,7.7 -9.8,11.4 -3.3,4.6 -5.9,9.6 -8.7,14.4 -1.7,3 -5.5,7.9 -4.6,11.7 2,8.9 14.4,-7.7 16.4,-8.4 -0.6,-0.2 -1.3,-0.3 -1.9,-0.5 0.2,0.2 -1,2.2 -1,2.8 -0.1,1.7 0.1,2.1 1.1,3.3 0.7,0.8 2.1,0.7 2.8,0 1.3,-1.4 2.5,-2.8 3.6,-4.4 -1,0.1 -2.1,0.3 -3.1,0.4 0.4,0.5 -1.4,3.4 0.7,4.6 2.5,1.5 4,-1.5 6,-2.4 -0.7,0 -1.3,0 -2,0 -0.9,-0.4 0.4,2.5 0.6,2.8 0.7,0.7 2.1,0.8 2.8,0 0.5,-1 1.4,-1.6 2.5,-1.7 -0.6,-0.2 -1.3,-0.3 -1.9,-0.5 0.9,0.8 0.8,2.1 2,2.8 0.9,0.5 3.3,-0.2 3.7,0.2 1.9,1.8 4.7,-1 2.8,-2.8 -0.9,-0.9 -1.5,-1.1 -2.8,-1.2 -0.6,0.1 -1.3,0.2 -1.9,0.2 0.8,-0.1 0.1,-1 -0.1,-1.2 -2.6,-2.3 -4.9,-1 -7,1.5 0.9,0 1.9,0 2.8,0 0.6,0.6 0.1,-2 -0.1,-2.4 -0.5,-0.9 -1.9,-1.5 -2.9,-1.2 -0.6,0.2 -1.3,0.5 -1.7,0.9 -1.2,1.1 0,2.3 0.3,0.7 0.3,-1.3 -0.1,-2.2 -0.9,-3.1 -0.9,-1 -2.4,-0.6 -3.1,0.4 -0.8,1.3 -1.8,2.5 -3,3.5 0.9,0 1.9,0 2.8,0 -0.2,-0.2 1,-2.2 1.1,-2.8 0.1,-1.6 -0.1,-2.1 -1.2,-3.3 -0.5,-0.5 -1.3,-0.7 -1.9,-0.5 -4.9,1.7 -7.2,7.4 -11.5,10.1 1.6,-1 3.2,-5.8 4.2,-7.5 1.9,-3.2 3.7,-6.5 5.6,-9.7 4,-6.6 8.4,-13.9 15.9,-16.7 7.5,-2.8 16.3,-0.4 17.1,8.5 0.2,2.6 4.2,2.7 3.9,0.1 l 0,0 z"
       id="path11"
       inkscape:connector-curvature="0" /><path
       d="m 191.7,15.2 c -2.1,0.3 -3.5,2.4 -4.7,4 -1.7,2.2 -3.2,4.5 -4.6,6.9 -0.5,0.8 0.8,1.6 1.3,0.8 1,-1.7 2.1,-3.3 3.2,-5 0.9,-1.3 3.1,-4.9 4.9,-5.2 0.9,-0.1 0.9,-1.6 -0.1,-1.5 l 0,0 z"
       id="path23"
       inkscape:connector-curvature="0" /><path
       d="m 193.9,19.9 c -2.3,1.9 -4.2,4.3 -5.7,7 -0.5,0.9 0.8,1.6 1.3,0.8 1.4,-2.6 3.2,-4.8 5.4,-6.7 0.8,-0.7 -0.2,-1.8 -1,-1.1 l 0,0 z"
       id="path29"
       inkscape:connector-curvature="0" /><path
       d="m 196.3,24 c -0.8,0.7 -1.5,1.6 -2,2.6 -0.4,0.9 0.9,1.6 1.3,0.8 0.4,-0.9 1,-1.6 1.7,-2.3 0.8,-0.7 -0.3,-1.7 -1,-1.1 l 0,0 z"
       id="path35"
       inkscape:connector-curvature="0" /></g><g
     id="g4277"
     transform="matrix(0.87902919,0,0,0.87902919,8.129486,-3.4240029)"><path
       d="m 248.1,42.2 c 6.1,-2.8 11.4,-0.1 14.4,5.5 2.7,5 2.4,10.6 0.4,15.7 -2,5.1 -4.4,10 -7.1,14.8 -1.2,2.1 -2.4,4.3 -3.7,6.4 -1.3,2.3 -3.4,7.4 -6.2,8.2 0.6,0.2 1.3,0.3 1.9,0.5 -1.8,-1.6 1.1,-8 1.8,-9.8 0.8,-2.2 1.4,-4.2 0.9,-6.5 -0.1,-0.7 -0.8,-1.2 -1.4,-1.4 -0.8,-0.2 -1.7,-0.5 -2.4,0 -0.3,0.2 -3.3,2.9 -2.9,3 0.5,0.8 0.9,1.6 1.4,2.5 0.3,-1.5 0.9,-3 1.6,-4.3 0.5,-1.1 0.2,-2.7 -1.2,-2.9 -1.1,-0.2 -1.7,-0.1 -2.7,0.4 -2,1.1 0.2,1 0.1,1.3 0.3,-1 0.3,-1.5 0.2,-2.5 -0.1,-1.1 -1,-2 -2,-2.3 -0.8,-0.2 -3.3,0.9 -2.6,1.1 0.5,0.8 0.9,1.6 1.4,2.5 1.1,-3 1.1,-5.7 -2.2,-6.8 -1.4,-0.5 -1.3,0 -2,-1.5 -0.4,-0.9 -1.4,-1.4 -2.3,-1.6 -2.5,-0.6 -3.6,3.3 -1.1,3.9 0.2,0 1.3,2.5 1.7,2.8 1.4,1.5 3.1,-0.7 2.1,2.1 -0.4,1 0.4,2.2 1.4,2.5 1.1,0.3 1.7,0.1 2.7,-0.5 -0.7,0.4 -1.3,-1.4 -1.4,0.9 0,0.6 -0.2,1.4 0.2,2 0.8,1.1 1.4,1.6 2.8,1.6 0.7,0 3,-1.9 2.7,-2 -0.4,-1 -0.8,-2 -1.2,-2.9 -0.8,1.7 -1.5,3.4 -2,5.3 -0.3,1 0.3,2.3 1.4,2.5 1.6,0.3 2.1,0.2 3.5,-0.7 0.3,-0.2 0.5,-0.4 0.7,-0.7 1.9,-2.6 -0.9,0.7 -1.2,1.5 -1.2,3.4 -3.7,9.3 -1.6,12.8 4.2,7.2 14.8,-14.7 15.9,-16.8 2.9,-5.1 5.1,-10.4 7.2,-15.8 1.9,-5 1.1,-10.3 -0.7,-15.2 -3.2,-9 -12.1,-12.7 -20.6,-8.8 -2.3,0.8 -0.3,4.2 2.1,3.2 l 0,0 z"
       id="path17"
       inkscape:connector-curvature="0" /><path
       d="m 257,54.4 c 0.7,1.5 -1.3,5.1 -1.9,6.4 -0.8,1.9 -1.9,3.7 -2.8,5.6 -0.5,0.9 0.8,1.6 1.3,0.8 1.3,-2.4 2.6,-4.9 3.6,-7.4 0.8,-1.8 1.9,-4.2 1.1,-6.1 -0.4,-1 -1.7,-0.2 -1.3,0.7 l 0,0 z"
       id="path41"
       inkscape:connector-curvature="0" /><path
       d="m 251.7,53.6 c -0.5,2.9 -1.5,5.6 -3,8.1 -0.5,0.8 0.8,1.6 1.3,0.8 1.6,-2.6 2.7,-5.4 3.2,-8.4 0.1,-1 -1.3,-1.4 -1.5,-0.5 l 0,0 z"
       id="path47"
       inkscape:connector-curvature="0" /><path
       d="m 246.9,53.7 c -0.2,1 -0.5,1.8 -1.1,2.6 -0.6,0.8 0.7,1.5 1.3,0.8 0.6,-0.9 1.1,-1.9 1.3,-3 0.2,-0.9 -1.3,-1.3 -1.5,-0.4 l 0,0 z"
       id="path53"
       inkscape:connector-curvature="0" /></g><path
     d="m 198.37407,2.5746851 c -1.21296,0.08498 -2.35209,0.75885 -3.01137,1.912575 L 166.52986,54.504365 c -1.05483,1.845961 -0.43813,4.131783 1.40783,5.18661 l 29.00796,16.701557 c 1.84596,1.054838 4.13143,0.439517 5.27418,-1.318541 l 28.74356,-50.104664 c 1.05483,-1.845962 0.43985,-4.13178 -1.4061,-5.186615 L 200.54933,3.0811581 c -0.69223,-0.395564 -1.44749,-0.557463 -2.17526,-0.506473 z m 0.92367,5.226104 c 0.72778,-0.05098 1.48131,0.109191 2.17353,0.504755 L 224.59044,21.57854 c 1.84595,1.054835 2.46093,3.340655 1.40608,5.186616 l -21.80061,37.798258 c -1.05482,1.84596 -3.33892,2.460933 -5.18489,1.406096 L 175.89186,52.696517 c -1.84595,-1.054834 -2.46093,-3.340654 -1.40608,-5.186616 L 196.28466,9.7116461 c 0.65928,-1.153725 1.80012,-1.825873 3.01308,-1.910857 z M 184.6564,62.525506 a 1.6701554,1.6701554 0 0 1 1.6705,1.670502 1.6701554,1.6701554 0 0 1 -1.6705,1.668776 1.6701554,1.6701554 0 0 1 -1.67049,-1.668776 1.6701554,1.6701554 0 0 1 1.67049,-1.670502 z"
     id="path55"
     inkscape:connector-curvature="0" /></svg>