<?xml version="1.0" encoding="utf-8"?>
<!-- Generator: Adobe Illustrator 18.0.0, SVG Export Plug-In . SVG Version: 6.00 Build 0)  -->
<!DOCTYPE svg PUBLIC "-//W3C//DTD SVG 1.1//EN" "http://www.w3.org/Graphics/SVG/1.1/DTD/svg11.dtd">
<svg version="1.1" id="Layer_1" xmlns="http://www.w3.org/2000/svg" xmlns:xlink="http://www.w3.org/1999/xlink" x="0px" y="0px"
	 viewBox="0 0 273.3 128.5" enable-background="new 0 0 273.3 128.5" xml:space="preserve">
<text transform="matrix(1 0 0 1 -2.8635 86.4354)" font-family="'Raleway-Light'" font-size="76.0415">Lob</text>
<g>
	<g>
		<g>
			<path d="M211,18.6c-0.8-7.7-5.7-12.7-13.4-13.6c-4.8-0.6-10,1.5-14.2,3.6c-4.1,2.2-7.2,7.7-9.8,11.4c-3.3,4.6-5.9,9.6-8.7,14.4
				c-1.7,3-5.5,7.9-4.6,11.7c2,8.9,14.4-7.7,16.4-8.4c-0.6-0.2-1.3-0.3-1.9-0.5c0.2,0.2-1,2.2-1,2.8c-0.1,1.7,0.1,2.1,1.1,3.3
				c0.7,0.8,2.1,0.7,2.8,0c1.3-1.4,2.5-2.8,3.6-4.4c-1,0.1-2.1,0.3-3.1,0.4c0.4,0.5-1.4,3.4,0.7,4.6c2.5,1.5,4-1.5,6-2.4
				c-0.7,0-1.3,0-2,0c-0.9-0.4,0.4,2.5,0.6,2.8c0.7,0.7,2.1,0.8,2.8,0c0.5-1,1.4-1.6,2.5-1.7c-0.6-0.2-1.3-0.3-1.9-0.5
				c0.9,0.8,0.8,2.1,2,2.8c0.9,0.5,3.3-0.2,3.7,0.2c1.9,1.8,4.7-1,2.8-2.8c-0.9-0.9-1.5-1.1-2.8-1.2c-0.6,0.1-1.3,0.2-1.9,0.2
				c0.8-0.1,0.1-1-0.1-1.2c-2.6-2.3-4.9-1-7,1.5c0.9,0,1.9,0,2.8,0c0.6,0.6,0.1-2-0.1-2.4c-0.5-0.9-1.9-1.5-2.9-1.2
				c-0.6,0.2-1.3,0.5-1.7,0.9c-1.2,1.1,0,2.3,0.3,0.7c0.3-1.3-0.1-2.2-0.9-3.1c-0.9-1-2.4-0.6-3.1,0.4c-0.8,1.3-1.8,2.5-3,3.5
				c0.9,0,1.9,0,2.8,0c-0.2-0.2,1-2.2,1.1-2.8c0.1-1.6-0.1-2.1-1.2-3.3c-0.5-0.5-1.3-0.7-1.9-0.5c-4.9,1.7-7.2,7.4-11.5,10.1
				c1.6-1,3.2-5.8,4.2-7.5c1.9-3.2,3.7-6.5,5.6-9.7c4-6.6,8.4-13.9,15.9-16.7c7.5-2.8,16.3-0.4,17.1,8.5
				C207.3,21.1,211.3,21.2,211,18.6L211,18.6z"/>
		</g>
	</g>
	<g>
		<g>
			<path d="M248.1,42.2c6.1-2.8,11.4-0.1,14.4,5.5c2.7,5,2.4,10.6,0.4,15.7c-2,5.1-4.4,10-7.1,14.8c-1.2,2.1-2.4,4.3-3.7,6.4
				c-1.3,2.3-3.4,7.4-6.2,8.2c0.6,0.2,1.3,0.3,1.9,0.5c-1.8-1.6,1.1-8,1.8-9.8c0.8-2.2,1.4-4.2,0.9-6.5c-0.1-0.7-0.8-1.2-1.4-1.4
				c-0.8-0.2-1.7-0.5-2.4,0c-0.3,0.2-3.3,2.9-2.9,3c0.5,0.8,0.9,1.6,1.4,2.5c0.3-1.5,0.9-3,1.6-4.3c0.5-1.1,0.2-2.7-1.2-2.9
				c-1.1-0.2-1.7-0.1-2.7,0.4c-2,1.1,0.2,1,0.1,1.3c0.3-1,0.3-1.5,0.2-2.5c-0.1-1.1-1-2-2-2.3c-0.8-0.2-3.3,0.9-2.6,1.1
				c0.5,0.8,0.9,1.6,1.4,2.5c1.1-3,1.1-5.7-2.2-6.8c-1.4-0.5-1.3,0-2-1.5c-0.4-0.9-1.4-1.4-2.3-1.6c-2.5-0.6-3.6,3.3-1.1,3.9
				c0.2,0,1.3,2.5,1.7,2.8c1.4,1.5,3.1-0.7,2.1,2.1c-0.4,1,0.4,2.2,1.4,2.5c1.1,0.3,1.7,0.1,2.7-0.5c-0.7,0.4-1.3-1.4-1.4,0.9
				c0,0.6-0.2,1.4,0.2,2c0.8,1.1,1.4,1.6,2.8,1.6c0.7,0,3-1.9,2.7-2c-0.4-1-0.8-2-1.2-2.9c-0.8,1.7-1.5,3.4-2,5.3
				c-0.3,1,0.3,2.3,1.4,2.5c1.6,0.3,2.1,0.2,3.5-0.7c0.3-0.2,0.5-0.4,0.7-0.7c1.9-2.6-0.9,0.7-1.2,1.5c-1.2,3.4-3.7,9.3-1.6,12.8
				c4.2,7.2,14.8-14.7,15.9-16.8c2.9-5.1,5.1-10.4,7.2-15.8c1.9-5,1.1-10.3-0.7-15.2c-3.2-9-12.1-12.7-20.6-8.8
				C243.7,39.8,245.7,43.2,248.1,42.2L248.1,42.2z"/>
		</g>
	</g>
	<g>
		<g>
			<path d="M191.7,15.2c-2.1,0.3-3.5,2.4-4.7,4c-1.7,2.2-3.2,4.5-4.6,6.9c-0.5,0.8,0.8,1.6,1.3,0.8c1-1.7,2.1-3.3,3.2-5
				c0.9-1.3,3.1-4.9,4.9-5.2C192.7,16.6,192.7,15.1,191.7,15.2L191.7,15.2z"/>
		</g>
	</g>
	<g>
		<g>
			<path d="M193.9,19.9c-2.3,1.9-4.2,4.3-5.7,7c-0.5,0.9,0.8,1.6,1.3,0.8c1.4-2.6,3.2-4.8,5.4-6.7C195.7,20.3,194.7,19.2,193.9,19.9
				L193.9,19.9z"/>
		</g>
	</g>
	<g>
		<g>
			<path d="M196.3,24c-0.8,0.7-1.5,1.6-2,2.6c-0.4,0.9,0.9,1.6,1.3,0.8c0.4-0.9,1-1.6,1.7-2.3C198.1,24.4,197,23.4,196.3,24
				L196.3,24z"/>
		</g>
	</g>
	<g>
		<g>
			<path d="M257,54.4c0.7,1.5-1.3,5.1-1.9,6.4c-0.8,1.9-1.9,3.7-2.8,5.6c-0.5,0.9,0.8,1.6,1.3,0.8c1.3-2.4,2.6-4.9,3.6-7.4
				c0.8-1.8,1.9-4.2,1.1-6.1C257.9,52.7,256.6,53.5,257,54.4L257,54.4z"/>
		</g>
	</g>
	<g>
		<g>
			<path d="M251.7,53.6c-0.5,2.9-1.5,5.6-3,8.1c-0.5,0.8,0.8,1.6,1.3,0.8c1.6-2.6,2.7-5.4,3.2-8.4C253.3,53.1,251.9,52.7,251.7,53.6
				L251.7,53.6z"/>
		</g>
	</g>
	<g>
		<g>
			<path d="M246.9,53.7c-0.2,1-0.5,1.8-1.1,2.6c-0.6,0.8,0.7,1.5,1.3,0.8c0.6-0.9,1.1-1.9,1.3-3C248.6,53.2,247.1,52.8,246.9,53.7
				L246.9,53.7z"/>
		</g>
	</g>
</g>
<path d="M214.8,90.8l-33-19c-2.1-1.2-2.8-3.8-1.6-5.9L213,9c1.2-2.1,3.8-2.8,5.9-1.6l33,19c2.1,1.2,2.8,3.8,1.6,5.9l-32.7,57
	C219.5,91.3,216.9,92,214.8,90.8z"/>
<path fill="#FFCC04" d="M217.2,79l-26.3-15.1c-2.1-1.2-2.8-3.8-1.6-5.9l24.8-43c1.2-2.1,3.8-2.8,5.9-1.6l26.3,15.1
	c2.1,1.2,2.8,3.8,1.6,5.9l-24.8,43C221.9,79.5,219.3,80.2,217.2,79z"/>
<circle fill="#FFCC04" cx="201.7" cy="77.3" r="1.9"/>
<rect x="176.6" y="76.7" transform="matrix(0.8673 0.4978 -0.4978 0.8673 71.6277 -76.7835)" fill="#E84B1D" width="6.4" height="38.5"/>
<rect x="182.6" y="80.9" transform="matrix(0.8673 0.4978 -0.4978 0.8673 76.5562 -78.6635)" fill="#E84B1D" width="6.4" height="46.8"/>
<rect x="193.4" y="86.3" transform="matrix(0.8673 0.4978 -0.4978 0.8673 78.7383 -83.8332)" fill="#E84B1D" width="6.4" height="38.8"/>
</svg>
